<?xml version="1.0" standalone="no"?>
<!DOCTYPE svg PUBLIC "-//W3C//DTD SVG 20010904//EN"
 "http://www.w3.org/TR/2001/REC-SVG-20010904/DTD/svg10.dtd">
<svg version="1.0" xmlns="http://www.w3.org/2000/svg"
 width="578.000000pt" height="570.000000pt" viewBox="0 0 578.000000 570.000000"
 preserveAspectRatio="xMidYMid meet">

<g transform="translate(0.000000,570.000000) scale(0.100000,-0.100000)"
fill="#000000" stroke="none">
<path d="M0 2850 l0 -2850 2890 0 2890 0 0 2850 0 2850 -2890 0 -2890 0 0
-2850z m3450 1771 c85 -30 140 -63 205 -123 105 -96 158 -218 156 -362 -2
-284 -235 -505 -533 -506 l-68 0 0 -1285 0 -1285 -85 0 -85 0 0 1285 0 1285
-240 0 -240 0 0 -1285 0 -1285 -85 0 -85 0 0 1710 0 1710 -100 0 -100 0 0 86
0 85 598 -3 c594 -3 597 -4 662 -27z m-1540 -1776 c0 -1183 -3 -1785 -10
-1785 -7 0 -10 602 -10 1785 0 1183 3 1785 10 1785 7 0 10 -602 10 -1785z
m1830 1744 c0 -17 -4 -28 -10 -24 -5 3 -10 17 -10 31 0 13 5 24 10 24 6 0 10
-14 10 -31z m10 -2213 c0 -706 -3 -1291 -6 -1300 -3 -9 -10 -16 -15 -16 -10 0
-13 2583 -2 2593 3 4 10 7 15 7 4 0 8 -578 8 -1284z"/>
<path d="M2562 4143 l3 -338 400 1 c388 1 402 2 457 23 72 28 151 99 185 165
34 67 42 173 19 242 -49 145 -197 244 -363 244 l-52 0 -3 -207 -3 -208 -80
-119 -80 -120 -3 327 -2 327 -240 0 -240 0 2 -337z"/>
</g>
</svg>
