<?xml version="1.0" encoding="UTF-8"?>
<svg xmlns="http://www.w3.org/2000/svg" xmlns:xlink="http://www.w3.org/1999/xlink" width="642px" height="626px" viewBox="0 0 161 157" version="1.1">
<defs>
<filter id="alpha" filterUnits="objectBoundingBox" x="0%" y="0%" width="100%" height="100%">
  <feColorMatrix type="matrix" in="SourceGraphic" values="0 0 0 0 1 0 0 0 0 1 0 0 0 0 1 0 0 0 1 0"/>
</filter>
<mask id="mask0">
  <g filter="url(#alpha)">
<rect x="0" y="0" width="161" height="157" style="fill:rgb(0%,0%,0%);fill-opacity:0.101961;stroke:none;"/>
  </g>
</mask>
<clipPath id="clip1">
  <rect x="0" y="0" width="161" height="157"/>
</clipPath>
<g id="surface5" clip-path="url(#clip1)">
<path style=" stroke:none;fill-rule:nonzero;fill:rgb(0%,0%,0%);fill-opacity:1;" d="M 77.914062 40.121094 L 80.109375 31.671875 L 88.675781 31.257812 L 91.238281 42.910156 Z M 77.914062 40.121094 "/>
</g>
</defs>
<g id="surface1">
<path style=" stroke:none;fill-rule:nonzero;fill:rgb(11.372549%,30.588235%,84.705882%);fill-opacity:1;" d="M 49.679688 115.242188 L 29.527344 115.242188 C 29.019531 115.242188 28.605469 114.828125 28.605469 114.320312 C 28.605469 113.8125 29.019531 113.402344 29.527344 113.402344 L 49.679688 113.402344 C 50.1875 113.402344 50.601562 113.8125 50.601562 114.320312 C 50.601562 114.828125 50.1875 115.242188 49.679688 115.242188 Z M 49.679688 115.242188 "/>
<path style=" stroke:none;fill-rule:nonzero;fill:rgb(24.705882%,23.921569%,33.72549%);fill-opacity:1;" d="M 13.6875 120.175781 C 13.6875 120.339844 13.824219 120.472656 13.988281 120.472656 L 65.21875 120.472656 C 65.386719 120.472656 65.519531 120.339844 65.519531 120.175781 C 65.519531 120.011719 65.386719 119.878906 65.21875 119.878906 L 13.988281 119.878906 C 13.824219 119.878906 13.6875 120.011719 13.6875 120.175781 Z M 13.6875 120.175781 "/>
<path style=" stroke:none;fill-rule:nonzero;fill:rgb(100%,40.784314%,51.764706%);fill-opacity:1;" d="M 138.082031 43.738281 C 138.082031 52.742188 130.78125 60.042969 121.78125 60.042969 C 112.777344 60.042969 105.480469 52.742188 105.480469 43.738281 C 105.480469 34.738281 112.777344 27.4375 121.78125 27.4375 C 130.78125 27.4375 138.082031 34.738281 138.082031 43.738281 Z M 138.082031 43.738281 "/>
<path style=" stroke:none;fill-rule:nonzero;fill:rgb(24.705882%,23.921569%,33.72549%);fill-opacity:1;" d="M 0 140.777344 C 0 140.941406 0.132812 141.074219 0.296875 141.074219 L 131.277344 141.074219 C 131.441406 141.074219 131.574219 140.941406 131.574219 140.777344 C 131.574219 140.609375 131.441406 140.476562 131.277344 140.476562 L 0.296875 140.476562 C 0.132812 140.476562 0 140.609375 0 140.777344 Z M 0 140.777344 "/>
<path style=" stroke:none;fill-rule:nonzero;fill:rgb(24.705882%,23.921569%,33.72549%);fill-opacity:1;" d="M 1.894531 120.621094 L 1.476562 120.160156 L 42.367188 82.84375 L 57.101562 89.449219 L 73.011719 62.164062 L 86.082031 55.863281 L 98.191406 76.046875 C 104.730469 59.121094 121.128906 41.410156 140.777344 23.441406 L 141.261719 23.832031 C 122.832031 41.476562 107.066406 59.199219 98.117188 77.128906 L 86.914062 58.40625 C 86.386719 57.519531 85.273438 57.179688 84.339844 57.613281 C 77.195312 60.9375 71.234375 66.363281 67.257812 73.167969 L 57.292969 90.214844 L 55.015625 89.195312 C 47.410156 85.785156 38.5 87.214844 32.34375 92.835938 Z M 1.894531 120.621094 "/>
<path style=" stroke:none;fill-rule:nonzero;fill:rgb(24.705882%,23.921569%,33.72549%);fill-opacity:1;" d="M 141.699219 26.835938 L 141.078125 26.878906 L 140.078125 24.707031 L 137.835938 24.253906 L 137.746094 23.636719 L 141.445312 23.113281 Z M 141.699219 26.835938 "/>
<path style=" stroke:none;fill-rule:nonzero;fill:rgb(100%,71.372549%,71.372549%);fill-opacity:1;" d="M 77.914062 40.121094 L 80.109375 31.671875 L 88.675781 31.257812 L 91.238281 42.910156 Z M 77.914062 40.121094 "/>
<use xlink:href="#surface5" mask="url(#mask0)"/>
<path style=" stroke:none;fill-rule:nonzero;fill:rgb(100%,71.372549%,71.372549%);fill-opacity:1;" d="M 93.882812 26.0625 C 93.882812 31.773438 89.257812 36.402344 83.546875 36.402344 C 77.839844 36.402344 73.210938 31.773438 73.210938 26.0625 C 73.210938 20.355469 77.839844 15.726562 83.546875 15.726562 C 89.257812 15.726562 93.882812 20.355469 93.882812 26.0625 Z M 93.882812 26.0625 "/>
<path style=" stroke:none;fill-rule:nonzero;fill:rgb(18.431373%,18.039216%,25.490196%);fill-opacity:1;" d="M 89.25 28.253906 C 89.25 28.253906 85.324219 20.472656 80.722656 20.921875 C 76.121094 21.371094 73.699219 21.917969 73.699219 21.917969 C 73.699219 21.917969 72.332031 15.855469 78.761719 13.527344 C 78.761719 13.527344 70.589844 5.464844 80.320312 1.511719 C 90.054688 -2.441406 95.5 2.601562 95.5 2.601562 C 95.5 2.601562 102.703125 9.792969 93.632812 15.171875 C 93.632812 15.171875 100.367188 24.234375 92.210938 31.703125 C 92.210938 31.703125 94.035156 25.660156 92.132812 26.773438 C 90.226562 27.890625 89.25 28.253906 89.25 28.253906 Z M 89.25 28.253906 "/>
<path style=" stroke:none;fill-rule:nonzero;fill:rgb(18.431373%,18.039216%,25.490196%);fill-opacity:1;" d="M 72.144531 82.867188 L 70.769531 84.183594 L 60.835938 105.484375 L 59.75 140.714844 L 76.4375 140.714844 L 84.265625 123.265625 L 89.539062 140.546875 L 104.546875 140.546875 L 108.023438 109.179688 L 98.671875 87 Z M 72.144531 82.867188 "/>
<path style=" stroke:none;fill-rule:nonzero;fill:rgb(90.196078%,90.196078%,90.196078%);fill-opacity:1;" d="M 89.429688 39.265625 L 78.285156 39.265625 L 66.164062 45.789062 L 68.992188 58.402344 C 68.992188 58.402344 68.339844 66.011719 69.859375 71.667969 C 71.382812 77.320312 70.730469 84.714844 70.730469 84.714844 L 98.671875 87 L 99.542969 61.335938 L 99.109375 44.15625 Z M 89.429688 39.265625 "/>
<path style=" stroke:none;fill-rule:nonzero;fill:rgb(90.196078%,90.196078%,90.196078%);fill-opacity:1;" d="M 68.011719 45.898438 C 68.011719 45.898438 61.269531 46.113281 60.183594 50.464844 C 59.097656 54.8125 58.226562 77.210938 58.226562 77.210938 C 58.226562 77.210938 58.878906 90.503906 66.164062 84.183594 C 73.449219 77.863281 72.796875 58.726562 72.796875 58.726562 Z M 68.011719 45.898438 "/>
<path style=" stroke:none;fill-rule:nonzero;fill:rgb(100%,100%,100%);fill-opacity:1;" d="M 133.394531 156.847656 L 93.671875 156.847656 C 92.324219 156.847656 91.230469 155.753906 91.230469 154.40625 L 91.230469 113.335938 C 91.230469 111.992188 92.324219 110.898438 93.671875 110.898438 L 133.394531 110.898438 C 134.742188 110.898438 135.835938 111.992188 135.835938 113.335938 L 135.835938 154.40625 C 135.835938 155.753906 134.742188 156.847656 133.394531 156.847656 Z M 133.394531 156.847656 "/>
<path style=" stroke:none;fill-rule:nonzero;fill:rgb(24.705882%,23.921569%,33.72549%);fill-opacity:1;" d="M 133.394531 157.097656 L 93.671875 157.097656 C 92.1875 157.097656 90.980469 155.890625 90.980469 154.40625 L 90.980469 113.335938 C 90.980469 111.851562 92.1875 110.644531 93.671875 110.644531 L 133.394531 110.644531 C 134.878906 110.644531 136.085938 111.851562 136.085938 113.335938 L 136.085938 154.40625 C 136.085938 155.890625 134.878906 157.097656 133.394531 157.097656 Z M 93.671875 111.148438 C 92.464844 111.148438 91.480469 112.128906 91.480469 113.335938 L 91.480469 154.40625 C 91.480469 155.613281 92.464844 156.597656 93.671875 156.597656 L 133.394531 156.597656 C 134.601562 156.597656 135.585938 155.613281 135.585938 154.40625 L 135.585938 113.335938 C 135.585938 112.128906 134.601562 111.148438 133.394531 111.148438 Z M 93.671875 111.148438 "/>
<path style=" stroke:none;fill-rule:nonzero;fill:rgb(11.372549%,30.588235%,84.705882%);fill-opacity:1;" d="M 115.101562 146.058594 L 111.828125 146.058594 C 111.429688 146.058594 111.105469 145.808594 111.105469 145.5 L 111.105469 131.402344 C 111.105469 131.09375 111.429688 130.84375 111.828125 130.84375 L 115.101562 130.84375 C 115.5 130.84375 115.824219 131.09375 115.824219 131.402344 L 115.824219 145.5 C 115.824219 145.808594 115.5 146.058594 115.101562 146.058594 Z M 115.101562 146.058594 "/>
<path style=" stroke:none;fill-rule:nonzero;fill:rgb(11.372549%,30.588235%,84.705882%);fill-opacity:1;" d="M 104.277344 137.75 C 103.953125 137.75 103.691406 137.953125 103.691406 138.199219 L 103.691406 145.484375 C 103.691406 145.734375 103.953125 145.933594 104.277344 145.933594 L 107.550781 145.933594 C 107.871094 145.933594 108.132812 145.734375 108.132812 145.484375 L 108.132812 138.199219 C 108.132812 137.953125 107.871094 137.75 107.550781 137.75 Z M 104.277344 137.75 "/>
<path style=" stroke:none;fill-rule:nonzero;fill:rgb(11.372549%,30.588235%,84.705882%);fill-opacity:1;" d="M 122.652344 146.058594 L 119.378906 146.058594 C 118.980469 146.058594 118.65625 145.808594 118.65625 145.5 L 118.65625 122.394531 C 118.65625 122.089844 118.980469 121.839844 119.378906 121.839844 L 122.652344 121.839844 C 123.050781 121.839844 123.375 122.089844 123.375 122.394531 L 123.375 145.5 C 123.375 145.808594 123.050781 146.058594 122.652344 146.058594 Z M 122.652344 146.058594 "/>
<path style=" stroke:none;fill-rule:nonzero;fill:rgb(11.372549%,30.588235%,84.705882%);fill-opacity:1;" d="M 52.191406 44.785156 L 48.453125 44.785156 C 47.996094 44.785156 47.628906 44.5 47.628906 44.148438 L 47.628906 28.042969 C 47.628906 27.691406 47.996094 27.40625 48.453125 27.40625 L 52.191406 27.40625 C 52.648438 27.40625 53.019531 27.691406 53.019531 28.042969 L 53.019531 44.148438 C 53.019531 44.5 52.648438 44.785156 52.191406 44.785156 Z M 52.191406 44.785156 "/>
<path style=" stroke:none;fill-rule:nonzero;fill:rgb(11.372549%,30.588235%,84.705882%);fill-opacity:1;" d="M 39.828125 35.296875 C 39.460938 35.296875 39.160156 35.527344 39.160156 35.8125 L 39.160156 44.128906 C 39.160156 44.414062 39.460938 44.644531 39.828125 44.644531 L 43.570312 44.644531 C 43.9375 44.644531 44.234375 44.414062 44.234375 44.128906 L 44.234375 35.8125 C 44.234375 35.527344 43.9375 35.296875 43.570312 35.296875 Z M 39.828125 35.296875 "/>
<path style=" stroke:none;fill-rule:nonzero;fill:rgb(11.372549%,30.588235%,84.705882%);fill-opacity:1;" d="M 60.816406 44.785156 L 57.078125 44.785156 C 56.621094 44.785156 56.253906 44.5 56.253906 44.148438 L 56.253906 17.757812 C 56.253906 17.40625 56.621094 17.121094 57.078125 17.121094 L 60.816406 17.121094 C 61.273438 17.121094 61.644531 17.40625 61.644531 17.757812 L 61.644531 44.148438 C 61.644531 44.5 61.273438 44.785156 60.816406 44.785156 Z M 60.816406 44.785156 "/>
<path style=" stroke:none;fill-rule:nonzero;fill:rgb(100%,71.372549%,71.372549%);fill-opacity:1;" d="M 107.441406 116.871094 C 109.378906 116.6875 110.714844 114.070312 110.421875 111.023438 C 110.324219 109.804688 109.933594 108.628906 109.285156 107.59375 L 108.910156 104.144531 L 108.96875 104.128906 L 109.90625 87.789062 C 110.125 83.988281 108.621094 80.253906 105.722656 77.789062 C 104 76.320312 102.160156 75.578125 100.980469 77.429688 C 99.015625 80.507812 101.558594 93.191406 103.226562 100.40625 L 103.875 108.109375 C 103.433594 109.25 103.277344 110.480469 103.410156 111.695312 C 103.699219 114.742188 105.507812 117.058594 107.441406 116.871094 Z M 107.441406 116.871094 "/>
<path style=" stroke:none;fill-rule:nonzero;fill:rgb(90.196078%,90.196078%,90.196078%);fill-opacity:1;" d="M 96.714844 44.59375 C 96.714844 44.59375 102.371094 42.417969 104.980469 48.941406 C 107.589844 55.464844 110.414062 87.652344 110.414062 87.652344 L 97.152344 85.257812 Z M 96.714844 44.59375 "/>
<path style=" stroke:none;fill-rule:nonzero;fill:rgb(90.196078%,90.196078%,90.196078%);fill-opacity:1;" d="M 19.082031 41.402344 L 11.46875 41.402344 C 10.960938 41.402344 10.546875 40.988281 10.546875 40.480469 C 10.546875 39.972656 10.960938 39.558594 11.46875 39.558594 L 19.082031 39.558594 C 19.589844 39.558594 20.003906 39.972656 20.003906 40.480469 C 20.003906 40.988281 19.589844 41.402344 19.082031 41.402344 Z M 19.082031 41.402344 "/>
<path style=" stroke:none;fill-rule:nonzero;fill:rgb(90.196078%,90.196078%,90.196078%);fill-opacity:1;" d="M 19.082031 28.339844 L 11.46875 28.339844 C 10.960938 28.339844 10.546875 27.925781 10.546875 27.417969 C 10.546875 26.910156 10.960938 26.496094 11.46875 26.496094 L 19.082031 26.496094 C 19.589844 26.496094 20.003906 26.910156 20.003906 27.417969 C 20.003906 27.925781 19.589844 28.339844 19.082031 28.339844 Z M 19.082031 28.339844 "/>
<path style=" stroke:none;fill-rule:nonzero;fill:rgb(90.196078%,90.196078%,90.196078%);fill-opacity:1;" d="M 19.082031 18.921875 L 11.46875 18.921875 C 10.960938 18.921875 10.546875 18.507812 10.546875 18 C 10.546875 17.492188 10.960938 17.078125 11.46875 17.078125 L 19.082031 17.078125 C 19.589844 17.078125 20.003906 17.492188 20.003906 18 C 20.003906 18.507812 19.589844 18.921875 19.082031 18.921875 Z M 19.082031 18.921875 "/>
<path style=" stroke:none;fill-rule:nonzero;fill:rgb(24.705882%,23.921569%,33.72549%);fill-opacity:1;" d="M 10.242188 44.832031 C 10.242188 44.996094 10.375 45.128906 10.539062 45.128906 L 61.773438 45.128906 C 61.9375 45.128906 62.070312 44.996094 62.070312 44.832031 C 62.070312 44.664062 61.9375 44.53125 61.773438 44.53125 L 10.539062 44.53125 C 10.375 44.53125 10.242188 44.664062 10.242188 44.832031 Z M 10.242188 44.832031 "/>
<path style=" stroke:none;fill-rule:nonzero;fill:rgb(24.705882%,23.921569%,33.72549%);fill-opacity:1;" d="M 109.050781 122.078125 C 109.050781 122.242188 109.183594 122.375 109.347656 122.375 L 160.578125 122.375 C 160.746094 122.375 160.878906 122.242188 160.878906 122.078125 C 160.878906 121.910156 160.746094 121.777344 160.578125 121.777344 L 109.347656 121.777344 C 109.183594 121.777344 109.050781 121.910156 109.050781 122.078125 Z M 109.050781 122.078125 "/>
<path style=" stroke:none;fill-rule:nonzero;fill:rgb(24.705882%,23.921569%,33.72549%);fill-opacity:1;" d="M 94.003906 146.40625 C 94.003906 146.570312 94.136719 146.703125 94.300781 146.703125 L 145.53125 146.703125 C 145.699219 146.703125 145.832031 146.570312 145.832031 146.40625 C 145.832031 146.238281 145.699219 146.105469 145.53125 146.105469 L 94.300781 146.105469 C 94.136719 146.105469 94.003906 146.238281 94.003906 146.40625 Z M 94.003906 146.40625 "/>
<path style=" stroke:none;fill-rule:nonzero;fill:rgb(100%,71.372549%,71.372549%);fill-opacity:1;" d="M 59.550781 43.324219 C 57.613281 43.507812 56.28125 46.125 56.570312 49.171875 C 56.671875 50.390625 57.0625 51.566406 57.710938 52.601562 L 58.082031 56.046875 L 58.027344 56.066406 L 57.085938 72.40625 C 56.867188 76.207031 58.371094 79.941406 61.269531 82.40625 C 62.992188 83.875 64.832031 84.617188 66.015625 82.765625 C 67.976562 79.6875 65.4375 67.003906 63.765625 59.789062 L 63.121094 52.082031 C 63.558594 50.941406 63.71875 49.714844 63.585938 48.5 C 63.296875 45.453125 61.488281 43.136719 59.550781 43.324219 Z M 59.550781 43.324219 "/>
</g>
</svg>
